# xmcd
#
# Track frame offsets: 
#        150
#        22690
#        45447
#        69224
#        90993
#        116818
#        145695
#        165895
#        183830
#        212729
#
# Disc length: 3145 seconds
#
# Revision: 1
# Processed by: cddbd v1.5.2PL0 Copyright (c) Steve Scherf et al.
# Submitted via: ExactAudioCopy v0.99pb4
#
DISCID=6d0c470a
DTITLE=Sonny Rollins - Solid
DYEAR=2002
DGENRE=Jazz
TTITLE0=Soft shoe
TTITLE1=Airegin
TTITLE2=Oleo
TTITLE3=Doxy
TTITLE4=Swingin' for bumsy
TTITLE5=Solid
TTITLE6=Moving out
TTITLE7=Silk 'n' satin
TTITLE8=More than you know
TTITLE9=The way you look tonight
EXTD=
EXTT0=
EXTT1=
EXTT2=
EXTT3=
EXTT4=
EXTT5=
EXTT6=
EXTT7=
EXTT8=
EXTT9=
PLAYORDER=
